<svg id="norm" xmlns="http://www.w3.org/2000/svg" viewBox="0 0 400 400"><g id="Insurance1"><line x1="260.83" y1="63.82" x2="283.01" y2="78.45" style="fill:none;stroke:#444;stroke-linecap:round;stroke-miterlimit:10;stroke-width:22px"></line><path d="M315.9,100.15l14.35,9.46a54.93,54.93,0,0,1,24.68,45.85v22.4A209.92,209.92,0,0,1,214.52,376L209,377.87a35.92,35.92,0,0,1-24.14-.12L177.42,375A209.93,209.93,0,0,1,39,177.65V155.83a57.09,57.09,0,0,1,24.63-47l109.11-75.4A37,37,0,0,1,214.15,33l13.23,8.72" style="fill:none;stroke:#444;stroke-linecap:round;stroke-miterlimit:10;stroke-width:22px"></path><path d="M172.18,175.69V122.11a13.54,13.54,0,0,1,13.55-13.54h15.16a13.54,13.54,0,0,1,13.55,13.54v53.58" style="fill:none;stroke:#ff6060;stroke-linecap:round;stroke-miterlimit:10;stroke-width:22px"></path><line x1="245.21" y1="280.23" x2="140.54" y2="280.23" style="fill:none;stroke:#ff6060;stroke-linecap:round;stroke-miterlimit:10;stroke-width:22px"></line><path d="M140.54,294.09V200.47a23,23,0,0,1,23-23h58.59a23,23,0,0,1,23,23v93.62" style="fill:none;stroke:#ff6060;stroke-linecap:round;stroke-miterlimit:10;stroke-width:22px"></path></g></svg>