<svg id="norm" xmlns="http://www.w3.org/2000/svg" viewBox="0 0 400 400"><g id="incoming1"><path d="M158.69,318.65c42.2,26.82,97.33,46.4,169.34,52.53a47.09,47.09,0,0,0,46.64-27h0a46.68,46.68,0,0,0-5-48.16c-22.56-29.37-31.95-67.19-25.5-115.18a73.25,73.25,0,0,0-37.91-74.48h0a67.16,67.16,0,0,0-74.89,7.85l-11.44,9.63a72.27,72.27,0,0,1-67.65,13.85h0a72.3,72.3,0,0,1-51-63.4l-.89-11.12A39.07,39.07,0,0,0,51,28.62h0a38.92,38.92,0,0,0-28.56,40c7.78,114.22,59.17,176.48,59.17,176.48" style="fill:none;stroke:#444;stroke-linecap:round;stroke-miterlimit:10;stroke-width:22px"></path><path d="M245,220.09,105.7,297a23.56,23.56,0,0,1-19.18,1.61L70.39,293" style="fill:none;stroke:#ff6060;stroke-linecap:round;stroke-miterlimit:10;stroke-width:22px"></path><line x1="126.18" y1="240.82" x2="191.99" y2="249.37" style="fill:none;stroke:#ff6060;stroke-linecap:round;stroke-miterlimit:10;stroke-width:22px"></line></g></svg>