<svg id="norm" xmlns="http://www.w3.org/2000/svg" viewBox="0 0 400 400"><g id="Custom_tour" data-name="Custom tour"><path d="M133.33,125.74V49.42A20.52,20.52,0,0,1,153.85,28.9h23.43A20.52,20.52,0,0,1,197.8,49.42v76.32" style="fill:none;stroke:#444;stroke-linecap:round;stroke-miterlimit:10;stroke-width:22px"></path><line x1="154.16" y1="335.3" x2="63.36" y2="335.3" style="fill:none;stroke:#444;stroke-linecap:round;stroke-miterlimit:10;stroke-width:22px"></line><path d="M63.36,358.54V177.21A44.63,44.63,0,0,1,108,132.58H221.46a44.63,44.63,0,0,1,44.63,44.63h0" style="fill:none;stroke:#444;stroke-linecap:round;stroke-miterlimit:10;stroke-width:22px"></path><path d="M243.25,230.76l.76-5a11.79,11.79,0,0,1,11.65-10h16.69A11.79,11.79,0,0,1,284,226l.66,4.72a16.37,16.37,0,0,0,8,11.93l.73.42a16.37,16.37,0,0,0,13.76,1.23l6.21-2.24a11.78,11.78,0,0,1,14.31,5.37l8,14.39a11.77,11.77,0,0,1-3.09,15L328.56,280a16.38,16.38,0,0,0-6.34,12.95h0a16.38,16.38,0,0,0,6.07,12.73l4.53,3.68a11.78,11.78,0,0,1,2.82,15l-8.23,14.44A11.8,11.8,0,0,1,313.25,344l-6-2.1a16.38,16.38,0,0,0-13.82,1.37l-.28.17a16.39,16.39,0,0,0-7.76,11.21l-1.07,6a11.78,11.78,0,0,1-11.6,9.72H255.81a11.79,11.79,0,0,1-11.62-9.82l-.83-4.91a16.36,16.36,0,0,0-8.2-11.59l-.6-.34a16.38,16.38,0,0,0-14-.92l-4.39,1.73a11.79,11.79,0,0,1-14.45-4.93l-8.82-14.8a11.78,11.78,0,0,1,3.51-15.79l2.3-1.56a16.38,16.38,0,0,0,7.19-13.57v-1.05A16.38,16.38,0,0,0,199.62,280l-4.14-3.22a11.8,11.8,0,0,1-2.84-15.39l8.83-14.62a11.78,11.78,0,0,1,14.3-4.91l5.11,2a16.41,16.41,0,0,0,14-1.06l.31-.18A16.4,16.4,0,0,0,243.25,230.76Z" style="fill:none;stroke:#ff6060;stroke-linecap:round;stroke-miterlimit:10;stroke-width:22px"></path><circle cx="264.07" cy="293.11" r="19.95" style="fill:none;stroke:#ff6060;stroke-linecap:round;stroke-miterlimit:10;stroke-width:22px"></circle></g></svg>