<svg id="norm" xmlns="http://www.w3.org/2000/svg" viewBox="0 0 400 400"><g id="Travel_Tour" data-name="Travel Tour"><path d="M133.65,127V50a20.69,20.69,0,0,1,20.69-20.69H178A20.69,20.69,0,0,1,198.66,50v77" style="fill:none;stroke:#444;stroke-linecap:round;stroke-miterlimit:10;stroke-width:22px"></path><line x1="122.29" y1="338.32" x2="63.09" y2="338.32" style="fill:none;stroke:#444;stroke-linecap:round;stroke-miterlimit:10;stroke-width:22px"></line><path d="M63.09,361.75V178.9a45,45,0,0,1,45-45H222.52a45,45,0,0,1,45,45v35.19" style="fill:none;stroke:#444;stroke-linecap:round;stroke-miterlimit:10;stroke-width:22px"></path><path d="M163.82,359.05c48.52,15.75,120.51,15.7,167.86.14a7.28,7.28,0,0,0,3.4-11.57l-17.46-21.07a36.26,36.26,0,0,1-8-18c-4.17-29.28-28.19-52.79-58.44-54.32a62.15,62.15,0,0,0-65.08,53.38,36.51,36.51,0,0,1-7.73,17.75l-17.89,22.21A7.26,7.26,0,0,0,163.82,359.05Z" style="fill:none;stroke:#ff6060;stroke-linecap:round;stroke-miterlimit:10;stroke-width:22px"></path><path d="M275.26,320.34c-20.84,2.07-55.06,2.93-89.8-4.73" style="fill:none;stroke:#ff6060;stroke-linecap:round;stroke-miterlimit:10;stroke-width:22px"></path></g></svg>